#!OML:ASF E:\emotionWalksFemale\Project 1\Capture day 1\Session 1\Female1.ASF
:FULLY-SPECIFIED
:DEGREES
1848
root 10.6718 15.1813 -28.8312 0.0571996 9.15232 3.07469
lowerback 3.79246 0.0858531 -5.93405
upperback -3.56185 -0.277103 -0.187525
thorax -5.82499 0.108266 3.15736
lowerneck -5.38243 -7.9992 -8.54559
upperneck 27.0989 -17.0161 23.8352
head 12.9896 -6.32451 8.54875
rclavicle -7.46996e-015 -9.62242e-015
rhumerus -42.6742 4.3113 -87.6085
rradius 31.044
rwrist 20.2378
rhand -9.38822 -51.9076
rfingers 7.12502
rthumb 16.5727 -81.2199
lclavicle -7.46996e-015 -9.62242e-015
lhumerus -42.4745 -2.07708 88.8963
lradius 31.7361
lwrist -18.692
lhand -4.60286 -34.1685
lfingers 7.12502
lthumb 21.1749 -5.30489
rfemur -30.3506 32.3971 8.08657
rtibia 21.5627
rfoot -34.685 -43.5616
rtoes 17.2861
lfemur 11.3931 -15.8399 -34.6938
ltibia 19.5458
lfoot -19.1039 7.30444
ltoes -6.71245
1849
root 10.6622 15.1931 -28.7453 0.257739 9.12718 3.19661
lowerback 3.96354 0.084639 -6.01397
upperback -3.83196 -0.30753 -0.220365
thorax -6.20802 0.113214 3.17164
lowerneck -5.12035 -8.05247 -8.58671
upperneck 27.3153 -17.1233 23.739
head 13.0399 -6.39309 8.52616
rclavicle -4.09993e-014 -1.85367e-014
rhumerus -43.0468 4.1171 -87.569
rradius 31.0567
rwrist 20.4138
rhand -9.36479 -51.7449
rfingers 7.12502
rthumb 16.5953 -81.0554
lclavicle -4.09993e-014 -1.85367e-014
lhumerus -42.929 -2.37654 89.0266
lradius 31.9652
lwrist -18.5329
lhand -4.6453 -34.5496
lfingers 7.12502
lthumb 21.1342 -5.68147
rfemur -30.3491 32.4031 8.06005
rtibia 21.5975
rfoot -35.3269 -43.5288
rtoes 17.9397
lfemur 11.4281 -15.5082 -34.645
ltibia 19.4458
lfoot -18.5492 7.25767
ltoes -9.18571
1850
root 10.6538 15.1989 -28.6603 0.388789 9.21881 3.26047
lowerback 3.53519 -0.0251904 -6.15641
upperback -3.66616 -0.419471 -0.0839923
thorax -5.77378 0.0504544 3.40135
lowerneck -5.67389 -8.0204 -8.61866
upperneck 27.4037 -17.0291 23.5594
head 13.1575 -6.32569 8.45483
rclavicle -1.13307e-014 1.45113e-014
rhumerus -42.7375 4.33954 -87.4006
rradius 31.0043
rwrist 20.185
rhand -9.41795 -51.6695
rfingers 7.12502
rthumb 16.5441 -80.9843
lclavicle -1.13307e-014 1.45113e-014
lhumerus -42.7165 -2.23664 89.2086
lradius 32.0877
lwrist -18.5786
lhand -4.71338 -34.5845
lfingers 7.12502
lthumb 21.0688 -5.7091
rfemur -30.0808 31.8951 8.36659
rtibia 21.5811
rfoot -35.1023 -43.4866
rtoes 17.6625
lfemur 11.5968 -15.3366 -34.5802
ltibia 19.4381
lfoot -18.1634 7.22704
ltoes -11.2434
1851
root 10.6452 15.2001 -28.5722 0.555673 9.25033 3.31043
lowerback 3.07919 -0.0131131 -6.1875
upperback -3.58228 -0.370328 -0.116828
thorax -5.42858 0.0627315 3.37708
lowerneck -5.25924 -8.0949 -8.61606
upperneck 26.8606 -17.1009 23.8555
head 12.8892 -6.38925 8.53689
rclavicle -2.47238e-015 1.5207e-014
rhumerus -42.6467 3.94479 -87.2501
rradius 31.1121
rwrist 20.0111
rhand -9.21123 -51.8528
rfingers 7.12502
rthumb 16.7431 -81.1509
lclavicle -2.47238e-015 1.5207e-014
lhumerus -42.6513 -2.8403 89.5666
lradius 32.2095
lwrist -18.6488
lhand -5.71584 -33.9058
lfingers 7.12502
lthumb 20.1055 -4.92614
rfemur -29.847 31.6055 8.59741
rtibia 21.4832
rfoot -34.5361 -43.5881
rtoes 17.0171
lfemur 11.7716 -15.2824 -34.5123
ltibia 19.5426
lfoot -18.0615 6.68165
ltoes -7.82014
1852
root 10.6306 15.2082 -28.4747 0.362736 9.27571 3.40855
lowerback 3.52742 -0.0137589 -6.31675
upperback -3.7105 -0.41904 -0.159129
thorax -5.81746 0.058109 3.41261
lowerneck -5.22149 -8.11818 -8.54861
upperneck 26.9029 -17.1703 23.8756
head 12.9123 -6.41215 8.52751
rclavicle -9.19379e-015 4.96962e-017
rhumerus -42.9685 3.69798 -87.2608
rradius 31.249
rwrist 19.8731
rhand -8.96615 -52.0258
rfingers 7.12502
rthumb 16.979 -81.3037
lclavicle -9.19379e-015 4.96962e-017
lhumerus -42.9836 -2.91263 89.5375
lradius 32.2276
lwrist -18.8233
lhand -5.88298 -33.5925
lfingers 7.12502
lthumb 19.9448 -4.59597
rfemur -29.1905 31.8557 8.8937
rtibia 21.4361
rfoot -34.7305 -43.7857
rtoes 18.1947
lfemur 12.1789 -15.0118 -34.5317
ltibia 19.6199
lfoot -17.6011 6.08543
ltoes -5.90412
1853
root 10.627 15.209 -28.3837 0.45706 9.24241 3.56454
lowerback 3.69107 -0.0387166 -6.38569
upperback -3.90304 -0.475943 -0.150722
thorax -6.11052 0.0470682 3.46676
lowerneck -5.48016 -8.06999 -8.48981
upperneck 26.9776 -17.0867 23.7496
head 12.9582 -6.35594 8.47076
rclavicle 2.59166e-014 1.51076e-014
rhumerus -43.2164 3.74097 -87.188
rradius 31.3862
rwrist 19.2401
rhand -8.64243 -52.3797
rfingers 7.12502
rthumb 17.2906 -81.6306
lclavicle 2.59166e-014 1.51076e-014
lhumerus -43.2039 -2.71291 89.5474
lradius 32.215
lwrist -18.9479
lhand -4.03793 -32.5923
lfingers 7.12502
lthumb 21.7175 -3.79053
rfemur -28.889 31.3778 9.10023
rtibia 21.4067
rfoot -34.3059 -43.4924
rtoes 19.3759
lfemur 12.3112 -14.7957 -34.6163
ltibia 19.7199
lfoot -17.0374 5.79701
ltoes -5.83558
1854
root 10.6253 15.2097 -28.2862 0.648727 9.3955 3.61019
lowerback 3.14451 -0.12923 -6.29618
upperback -3.80907 -0.544943 -0.119867
thorax -5.68806 -0.00588239 3.44954
lowerneck -5.39544 -8.11625 -8.59674
upperneck 26.8166 -17.0965 23.7388
head 12.8806 -6.3872 8.47082
rclavicle 4.69629e-015 -2.5842e-015
rhumerus -43.075 3.62588 -86.9678
rradius 31.442
rwrist 18.5969
rhand -8.50837 -52.15
rfingers 7.12502
rthumb 17.4196 -81.3894
lclavicle 4.69629e-015 -2.5842e-015
lhumerus -42.8581 -2.75362 89.7125
lradius 32.008
lwrist -18.8857
lhand -2.66446 -31.99
lfingers 7.12502
lthumb 23.036 -3.34669
rfemur -28.6529 31.007 9.31648
rtibia 21.4045
rfoot -33.9023 -43.5854
rtoes 19.371
lfemur 12.3563 -14.7794 -34.5784
ltibia 19.8562
lfoot -16.4427 5.61954
ltoes -5.97327
1855
root 10.6114 15.2126 -28.1832 0.671638 9.39389 3.62119
lowerback 3.12763 -0.123755 -6.34523
upperback -3.88024 -0.540124 -0.0864991
thorax -5.7543 0.00318536 3.51176
lowerneck -5.6644 -8.15261 -8.5722
upperneck 26.8399 -17.1369 23.6575
head 12.9467 -6.38841 8.41503
rclavicle -1.36167e-014 1.19271e-015
rhumerus -43.2488 3.47605 -86.879
rradius 31.4084
rwrist 18.2315
rhand -9.00422 -51.5831
rfingers 7.12502
rthumb 16.9424 -80.8642
lclavicle -1.36167e-014 1.19271e-015
lhumerus -42.9586 -2.97144 89.8683
lradius 32.0202
lwrist -18.7835
lhand -6.09083 -34.1261
lfingers 7.12502
lthumb 19.745 -5.10895
rfemur -28.171 30.5756 9.86843
rtibia 21.4517
rfoot -33.2299 -43.7425
rtoes 19.0451
lfemur 12.6248 -14.5819 -34.4895
ltibia 19.9803
lfoot -15.9867 5.30677
ltoes -4.4617
1856
root 10.6034 15.2182 -28.0874 0.623348 9.53166 3.71306
lowerback 3.04422 -0.16109 -6.43714
upperback -3.77976 -0.58343 -0.0480849
thorax -5.59491 -0.0210325 3.60579
lowerneck -5.79606 -8.19256 -8.52581
upperneck 26.6185 -17.1453 23.6527
head 12.8782 -6.38877 8.37556
rclavicle -4.5969e-015 -1.05356e-014
rhumerus -43.1307 3.41722 -86.7671
rradius 31.386
rwrist 17.8061
rhand -9.43068 -51.6748
rfingers 7.12502
rthumb 16.5318 -80.9906
lclavicle -4.5969e-015 -1.05356e-014
lhumerus -42.9113 -3.01324 89.9782
lradius 32.1937
lwrist -18.8364
lhand -2.46408 -31.977
lfingers 7.12502
lthumb 23.2282 -3.35787
rfemur -27.5678 29.9759 10.3448
rtibia 21.4625
rfoot -33.0143 -43.7276
rtoes 19.8809
lfemur 12.9551 -14.4392 -34.5232
ltibia 20.1656
lfoot -15.4214 4.98255
ltoes -3.63868
1857
root 10.5941 15.2367 -27.9834 0.676547 9.56483 3.68346
lowerback 3.23765 -0.19472 -6.19647
upperback -4.02482 -0.642083 -0.135961
thorax -5.96033 -0.0449784 3.38622
lowerneck -5.75464 -8.20685 -8.40116
upperneck 26.6895 -17.2027 23.6232
head 12.8967 -6.4033 8.3373
rclavicle 1.40764e-014 2.5842e-015
rhumerus -43.5624 2.94932 -86.6728
rradius 31.5294
rwrist 17.8212
rhand -8.83612 -52.0495
rfingers 7.12502
rthumb 17.1042 -81.3166
lclavicle 1.40764e-014 2.5842e-015
lhumerus -43.2574 -3.09909 89.8431
lradius 32.2346
lwrist -18.8398
lhand -3.76941 -32.2828
lfingers 7.12502
lthumb 21.9754 -3.51107
rfemur -27.2879 30.1617 10.6188
rtibia 21.6036
rfoot -33.6555 -44.0649
rtoes 21.1845
lfemur 13.2282 -14.3535 -34.4338
ltibia 20.2399
lfoot -14.7564 4.71042
ltoes -0.845674
1858
root 10.5841 15.2603 -27.8774 0.847328 9.61878 3.48209
lowerback 2.45268 -0.222069 -6.04087
upperback -3.80643 -0.598966 -0.00971538
thorax -5.28127 -0.0533898 3.41875
lowerneck -5.7003 -8.25073 -8.45612
upperneck 26.2461 -17.2003 23.8037
head 12.7266 -6.41941 8.38818
rclavicle 2.53575e-014 -7.65321e-015
rhumerus -43.2365 2.43206 -86.1949
rradius 31.6191
rwrist 17.825
rhand -8.16537 -52.4117
rfingers 7.12502
rthumb 17.7497 -81.6216
lclavicle 2.53575e-014 -7.65321e-015
lhumerus -42.717 -3.21957 89.9922
lradius 32.0824
lwrist -18.7888
lhand -5.32798 -33.0829
lfingers 7.12502
lthumb 20.4783 -4.14289
rfemur -27.1511 30.3617 10.9921
rtibia 21.672
rfoot -34.0181 -44.4374
rtoes 22.5857
lfemur 13.2185 -14.2614 -34.0783
ltibia 20.4483
lfoot -14.1218 4.4977
ltoes 0.941923
1859
root 10.5742 15.2576 -27.7776 0.938591 9.97056 3.27167
lowerback 2.59585 -0.329845 -5.82999
upperback -4.03744 -0.744561 0.0962458
thorax -5.59171 -0.1171 3.42415
lowerneck -5.35817 -8.29016 -8.64434
upperneck 26.0692 -17.2628 24.0247
head 12.6404 -6.48254 8.50924
rclavicle -1.84994e-014 -1.19271e-015
rhumerus -43.5474 2.17884 -85.9308
rradius 31.6184
rwrist 17.4969
rhand -8.25681 -52.6373
rfingers 7.12502
rthumb 17.6617 -81.8552
lclavicle -1.84994e-014 -1.19271e-015
lhumerus -42.9108 -3.28202 90.0987
lradius 32.0374
lwrist -18.8312
lhand -5.66678 -33.5232
lfingers 7.12502
lthumb 20.1527 -4.54849
rfemur -26.8738 30.3884 11.4038
rtibia 21.6717
rfoot -34.3279 -44.6796
rtoes 24.6988
lfemur 13.2107 -14.2084 -33.6572
ltibia 20.6718
lfoot -13.2851 4.25755
ltoes -2.45049
